<?xml version="1.0" encoding="utf-8"?>
<!-- Generator: Adobe Illustrator 25.4.1, SVG Export Plug-In . SVG Version: 6.00 Build 0)  -->
<svg version="1.1" id="Ebene_1" xmlns="http://www.w3.org/2000/svg" xmlns:xlink="http://www.w3.org/1999/xlink" x="0px" y="0px"
	 viewBox="0 0 595.28 841.89" style="enable-background:new 0 0 595.28 841.89;" xml:space="preserve">
<style type="text/css">
	.st0{fill:#BE1622;stroke:#000000;stroke-miterlimit:10;}
</style>
<path class="st0" d="M145.42,134.68c-17.01,14.39,22.65,39.85,31.46,47.9c-4.1-14.68,15.97-21.65,15.3-36.11
	c-0.49-10.56-8.11-22.69-19.05-13.58c-3.97,3.3-5.3,8.86-4.68,13.82c0.09-3.76-0.61-8.03-2.64-11.25
	C161.61,128.75,150.84,130.1,145.42,134.68z"/>
<path class="st0" d="M187.33,81.72c-21.01,18.71,27.98,51.81,38.87,62.28c-5.07-19.09,19.73-28.15,18.91-46.94
	c-0.6-13.73-10.02-29.5-23.54-17.66c-4.91,4.3-6.55,11.52-5.78,17.97c0.11-4.88-0.76-10.43-3.26-14.63
	C207.33,74,194.04,75.76,187.33,81.72z"/>
</svg>
