<svg id="Ebene_1" data-name="Ebene 1" xmlns="http://www.w3.org/2000/svg" xmlns:xlink="http://www.w3.org/1999/xlink" viewBox="0 0 81.52 61.28"><defs><style>.cls-1{fill:#ea554f;}.cls-2{fill:#e8544e;}.cls-3{font-size:12px;fill:#f39200;stroke:#f9b233;stroke-miterlimit:10;stroke-width:0.25px;font-family:MonotypeCorsiva, Monotype Corsiva;}.cls-4{fill:url(#Roter_Ahorn);}</style><linearGradient id="Roter_Ahorn" x1="346.1" y1="298.26" x2="364.98" y2="283.34" gradientTransform="matrix(-0.93, -0.77, -1.36, 1.63, 782.01, -169.59)" gradientUnits="userSpaceOnUse"><stop offset="0" stop-color="#814c16"/><stop offset="0.24" stop-color="#945a1b"/><stop offset="0.46" stop-color="#77411c"/><stop offset="0.63" stop-color="#945a1b"/><stop offset="0.77" stop-color="#77411c"/><stop offset="0.87" stop-color="#7f4a15"/><stop offset="0.99" stop-color="#77411c"/></linearGradient></defs><path class="cls-1" d="M43.68,14.17a15.32,15.32,0,0,0-21.65,0l-1.34,1.34a15.32,15.32,0,0,0,0,21.65l4.7,4.7,23-23Z" transform="translate(0.12 -3.56)"/><path class="cls-2" d="M76.06,37.16a15.31,15.31,0,0,0,0-21.65l-1.34-1.34a15.31,15.31,0,0,0-21.64,0l-4.7,4.7,23,23Z" transform="translate(0.12 -3.56)"/><rect class="cls-1" x="32.13" y="25.6" width="32.5" height="32.5" transform="translate(-15.31 42.9) rotate(-45)"/><text class="cls-3" transform="translate(0.12 29.62)">Die Krücke</text><path class="cls-4" d="M73.14,4.09a1.63,1.63,0,0,0-2.39,0C68.08,6.62,72,8.61,72,10c0,2.7-9.81,12.85-12.45,16-2.21,2.67-26.55,32-26.52,32,1.43,1.23,1.06,1.66,3.15-.24,1.74-1.59,3.61-4.51,5.13-6.39q5.37-6.67,10.77-13.31,9.42-11.54,19-23c2.14-2.57,3-4.25,4.61-3.11s.85,5.29,4,4.38a1.28,1.28,0,0,0,.55-.29,1.84,1.84,0,0,0,.36-.53c2.1-4.22-.13-5.76-1.91-7.35S74.89,5.58,73.14,4.09Z" transform="translate(0.12 -3.56)"/></svg>