<?xml version="1.0" encoding="utf-8"?>
<!-- Generator: Adobe Illustrator 25.4.1, SVG Export Plug-In . SVG Version: 6.00 Build 0)  -->
<svg version="1.1" id="Ebene_1" xmlns="http://www.w3.org/2000/svg" xmlns:xlink="http://www.w3.org/1999/xlink" x="0px" y="0px"
	 viewBox="0 0 595.28 841.89" style="enable-background:new 0 0 595.28 841.89;" xml:space="preserve">
<style type="text/css">
	.st0{fill:#EA554F;}
	.st1{fill:#E8544E;}
	.st2{fill:none;}
	.st3{fill:#F39200;stroke:#F9B233;stroke-width:0.25;stroke-miterlimit:10;}
	.st4{font-family:'MonotypeCorsiva';}
	.st5{font-size:12px;}
	.st6{fill:url(#SVGID_1_);}
</style>
<g>
	<path class="st0" d="M156.57,348.06c-5.98-5.98-15.67-5.98-21.65,0l-1.34,1.34c-5.98,5.98-5.98,15.67,0,21.65l4.7,4.7l22.98-22.98
		L156.57,348.06z"/>
	<path class="st1" d="M188.95,371.04c5.98-5.98,5.98-15.67,0-21.65l-1.34-1.34c-5.98-5.98-15.67-5.98-21.65,0l-4.7,4.7l22.98,22.98
		L188.95,371.04z"/>
	
		<rect x="145.02" y="359.49" transform="matrix(0.7071 -0.7071 0.7071 0.7071 -218.4535 224.0849)" class="st0" width="32.5" height="32.5"/>
	
		<rect x="131.16" y="337.72" transform="matrix(1.132783e-03 -1 1 1.132783e-03 -224.9818 500.6505)" class="st2" width="13.92" height="50.45"/>
	<text transform="matrix(1 0 0 1 112.8979 367.0713)" class="st3 st4 st5">Die Krücke</text>
	
		<linearGradient id="SVGID_1_" gradientUnits="userSpaceOnUse" x1="96.8893" y1="385.0461" x2="115.7743" y2="370.1274" gradientTransform="matrix(-0.9261 -0.7728 -1.3585 1.6281 782.0134 -169.5938)">
		<stop  offset="0" style="stop-color:#814C16"/>
		<stop  offset="0.236" style="stop-color:#945A1B"/>
		<stop  offset="0.4607" style="stop-color:#77411C"/>
		<stop  offset="0.6292" style="stop-color:#945A1B"/>
		<stop  offset="0.7697" style="stop-color:#77411C"/>
		<stop  offset="0.8708" style="stop-color:#7F4A15"/>
		<stop  offset="0.9944" style="stop-color:#77411C"/>
	</linearGradient>
	<path class="st6" d="M186.03,337.97c-0.56-0.48-1.47-0.88-2.4,0c-2.66,2.53,1.29,4.52,1.29,5.93c-0.01,2.7-9.81,12.85-12.45,16.04
		c-2.21,2.67-26.56,31.99-26.52,32.02c1.42,1.22,1.06,1.65,3.15-0.24c1.74-1.59,3.61-4.51,5.13-6.39
		c3.58-4.45,7.17-8.88,10.78-13.31c6.27-7.69,12.58-15.36,18.94-22.98c2.14-2.56,2.98-4.24,4.61-3.11c1.64,1.14,0.85,5.29,3.98,4.38
		c0.18-0.05,0.38-0.13,0.55-0.29c0.16-0.15,0.27-0.35,0.36-0.54c2.1-4.22-0.12-5.75-1.91-7.35
		C189.81,340.6,187.78,339.46,186.03,337.97z"/>
</g>
</svg>
