<svg id="Ebene_1" data-name="Ebene 1" xmlns="http://www.w3.org/2000/svg" xmlns:xlink="http://www.w3.org/1999/xlink" viewBox="0 0 81.52 61.28"><defs><style>.cls-1{fill:#ea554f;}.cls-2{fill:#e8544e;}.cls-3{font-size:12px;fill:#f39200;stroke:#f9b233;stroke-miterlimit:10;stroke-width:0.25px;font-family:MonotypeCorsiva, Monotype Corsiva;}.cls-4{fill:url(#Roter_Ahorn);}</style><linearGradient id="Roter_Ahorn" x1="56.06" y1="190.54" x2="74.95" y2="175.62" gradientTransform="matrix(-0.93, -0.77, -1.36, 1.63, 782.01, -169.59)" gradientUnits="userSpaceOnUse"><stop offset="0" stop-color="#814c16"/><stop offset="0.24" stop-color="#945a1b"/><stop offset="0.46" stop-color="#77411c"/><stop offset="0.63" stop-color="#945a1b"/><stop offset="0.77" stop-color="#77411c"/><stop offset="0.87" stop-color="#7f4a15"/><stop offset="0.99" stop-color="#77411c"/></linearGradient></defs><path class="cls-1" d="M458.63,62.93a15.31,15.31,0,0,0-21.65,0l-1.34,1.34a15.29,15.29,0,0,0,0,21.64l4.7,4.7,23-23Z" transform="translate(-414.83 -52.32)"/><path class="cls-2" d="M491,85.91a15.29,15.29,0,0,0,0-21.64l-1.34-1.34a15.31,15.31,0,0,0-21.65,0l-4.69,4.7,23,23Z" transform="translate(-414.83 -52.32)"/><rect class="cls-1" x="447.07" y="74.36" width="32.5" height="32.5" transform="translate(-343.2 301.84) rotate(-45)"/><text class="cls-3" transform="translate(0.13 29.62)">Die Krücke</text><path class="cls-4" d="M488.09,52.84a1.65,1.65,0,0,0-2.4,0C483,55.37,487,57.36,487,58.77c0,2.7-9.81,12.85-12.45,16-2.21,2.67-26.56,32-26.52,32,1.42,1.22,1.06,1.65,3.15-.24,1.74-1.59,3.61-4.51,5.12-6.4q5.37-6.66,10.78-13.3,9.4-11.53,18.94-23c2.15-2.56,3-4.24,4.61-3.11s.86,5.29,4,4.39a1.28,1.28,0,0,0,.55-.29,2.21,2.21,0,0,0,.36-.54c2.09-4.22-.13-5.75-1.91-7.35S489.83,54.34,488.09,52.84Z" transform="translate(-414.83 -52.32)"/></svg>